<?xml version="1.0" encoding="iso-8859-1"?>
<!-- Uploaded to: SVG Repo, www.svgrepo.com, Generator: SVG Repo Mixer Tools -->
<svg fill="#000000" height="800px" width="800px" version="1.1" id="Layer_1" xmlns="http://www.w3.org/2000/svg" xmlns:xlink="http://www.w3.org/1999/xlink" 
	 viewBox="0 0 512.001 512.001" xml:space="preserve">
<g>
	<g>
		<path d="M464.485,102.273h-34.171c-5.447,0-9.86,4.415-9.86,9.86c0,5.445,4.413,9.86,9.86,9.86h34.171
			c15.326,0,27.796,12.469,27.796,27.794v279.016c0,15.326-12.469,27.794-27.796,27.794h-8.955
			c2.527-11.972,9.582-22.646,19.952-29.659c4.512-3.05,5.695-9.179,2.645-13.691c-3.049-4.511-9.177-5.695-13.691-2.645
			c-15.821,10.698-26.185,27.43-28.924,45.995H76.511c-4.311-29.277-27.514-52.483-56.79-56.796V149.788
			c0-15.326,12.469-27.794,27.794-27.794h346.646c5.447,0,9.86-4.415,9.86-9.86c0-5.446-4.414-9.86-9.86-9.86h-24.327V74.112
			c0-21.19-17.24-38.43-38.43-38.43H180.598c-21.191,0-38.43,17.24-38.43,38.43v28.161H47.515C21.315,102.273,0,123.589,0,149.788
			v279.016c0,26.2,21.315,47.515,47.515,47.515h416.97c26.201,0,47.516-21.315,47.516-47.515V149.788
			C512,123.589,490.686,102.273,464.485,102.273z M161.887,74.111c0-10.317,8.393-18.71,18.71-18.71h150.805
			c10.318,0,18.71,8.393,18.71,18.71v28.161H161.887V74.111z M47.516,456.597c-15.327,0.001-27.796-12.467-27.796-27.794v-8.977
			c18.381,3.884,32.886,18.389,36.767,36.771H47.516z"/>
	</g>
</g>
<g>
	<g>
		<path d="M255.999,174.75c-16.168,0-31.859,3.168-46.637,9.419c-5.016,2.122-7.362,7.907-5.24,12.922
			c2.122,5.016,7.908,7.361,12.922,5.24c12.333-5.217,25.44-7.861,38.955-7.861c55.188,0,100.085,44.897,100.085,100.085
			c0,55.188-44.897,100.085-100.085,100.085c-55.188,0-100.085-44.897-100.085-100.085c0-26.733,10.411-51.867,29.314-70.771
			c3.851-3.851,3.851-10.094,0-13.944c-3.849-3.852-10.093-3.852-13.944-0.001c-22.629,22.629-35.091,52.715-35.091,84.716
			c0,66.062,53.744,119.806,119.806,119.806s119.806-53.744,119.806-119.806S322.06,174.75,255.999,174.75z"/>
	</g>
</g>
<g>
	<g>
		<path d="M319.107,258.401h-26.952v-26.952c0-5.446-4.415-9.86-9.86-9.86h-52.589c-5.446,0-9.86,4.415-9.86,9.86v26.952h-26.952
			c-5.446,0-9.86,4.415-9.86,9.86v52.589c0,5.445,4.415,9.86,9.86,9.86h26.952v26.952c0,5.445,4.415,9.86,9.86,9.86h52.589
			c5.447,0,9.86-4.415,9.86-9.86V330.71h26.952c5.447,0,9.86-4.415,9.86-9.86v-52.588
			C328.967,262.816,324.554,258.401,319.107,258.401z M309.246,310.989h-26.952c-5.447,0-9.86,4.415-9.86,9.86v26.952h-32.868
			V320.85c0-5.446-4.415-9.86-9.86-9.86h-26.952v-32.868h26.952c5.446,0,9.86-4.415,9.86-9.86V241.31h32.868v26.952
			c0,5.445,4.413,9.86,9.86,9.86h26.952V310.989z"/>
	</g>
</g>
</svg>